<svg width="157" height="47" viewBox="0 0 157 47" fill="none" xmlns="http://www.w3.org/2000/svg">
<path d="M32.8145 41V22.084H36.8008V29.8916H44.9258V22.084H48.9121V41H44.9258V33.1797H36.8008V41H32.8145ZM57.6719 41.2793C56.2415 41.2793 55.0016 40.9746 53.9521 40.3652C52.9111 39.7474 52.1071 38.8926 51.54 37.8008C50.9814 36.7005 50.7021 35.4225 50.7021 33.9668C50.7021 32.4941 50.9814 31.2119 51.54 30.1201C52.1071 29.0199 52.9111 28.165 53.9521 27.5557C55.0016 26.9378 56.2415 26.6289 57.6719 26.6289C59.1107 26.6289 60.3506 26.9378 61.3916 27.5557C62.4411 28.165 63.2451 29.0199 63.8037 30.1201C64.3708 31.2119 64.6543 32.4941 64.6543 33.9668C64.6543 35.4225 64.3708 36.7005 63.8037 37.8008C63.2451 38.8926 62.4411 39.7474 61.3916 40.3652C60.3506 40.9746 59.1107 41.2793 57.6719 41.2793ZM57.6973 38.207C58.349 38.207 58.8949 38.0251 59.335 37.6611C59.7751 37.2887 60.1051 36.7809 60.3252 36.1377C60.5537 35.4945 60.668 34.7624 60.668 33.9414C60.668 33.112 60.5537 32.3799 60.3252 31.7451C60.1051 31.1104 59.7751 30.611 59.335 30.2471C58.8949 29.8831 58.349 29.7012 57.6973 29.7012C57.0371 29.7012 56.4827 29.8831 56.0342 30.2471C55.5941 30.611 55.2598 31.1104 55.0312 31.7451C54.8112 32.3799 54.7012 33.112 54.7012 33.9414C54.7012 34.7624 54.8112 35.4945 55.0312 36.1377C55.2598 36.7809 55.5941 37.2887 56.0342 37.6611C56.4827 38.0251 57.0371 38.207 57.6973 38.207ZM66.3936 41V26.8066H70.1133V29.333H70.291C70.5872 28.4951 71.0824 27.835 71.7764 27.3525C72.4704 26.8701 73.2956 26.6289 74.252 26.6289C75.2253 26.6289 76.0505 26.8743 76.7275 27.3652C77.4131 27.8477 77.8701 28.5036 78.0986 29.333H78.251C78.5387 28.512 79.0635 27.8561 79.8252 27.3652C80.5869 26.8743 81.484 26.6289 82.5166 26.6289C83.8369 26.6289 84.9118 27.0479 85.7412 27.8857C86.5791 28.7236 86.998 29.9128 86.998 31.4531V41H83.0625V32.2402C83.0625 31.4447 82.8509 30.8522 82.4277 30.4629C82.013 30.0736 81.4925 29.8789 80.8662 29.8789C80.1553 29.8789 79.5967 30.1074 79.1904 30.5645C78.7926 31.013 78.5938 31.6055 78.5938 32.3418V41H74.7852V32.1387C74.7852 31.4531 74.5863 30.9072 74.1885 30.501C73.7907 30.0863 73.2702 29.8789 72.627 29.8789C72.1868 29.8789 71.7933 29.9889 71.4463 30.209C71.0993 30.429 70.8242 30.7337 70.6211 31.123C70.418 31.5039 70.3164 31.9609 70.3164 32.4941V41H66.3936ZM95.7832 41.2793C94.3275 41.2793 93.0706 40.9831 92.0127 40.3906C90.9548 39.7982 90.1423 38.9561 89.5752 37.8643C89.0166 36.764 88.7373 35.4648 88.7373 33.9668C88.7373 32.5111 89.0166 31.2331 89.5752 30.1328C90.1423 29.0326 90.9378 28.1735 91.9619 27.5557C92.9945 26.9378 94.2048 26.6289 95.5928 26.6289C96.5322 26.6289 97.4082 26.7812 98.2207 27.0859C99.0332 27.3822 99.7441 27.8307 100.354 28.4316C100.963 29.0241 101.437 29.7731 101.775 30.6787C102.114 31.5758 102.283 32.6296 102.283 33.8398V34.9062H90.2988V32.4814H100.379L98.5508 33.1162C98.5508 32.3968 98.4408 31.7705 98.2207 31.2373C98.0007 30.7041 97.6706 30.2936 97.2305 30.0059C96.7988 29.7096 96.2614 29.5615 95.6182 29.5615C94.9749 29.5615 94.429 29.7096 93.9805 30.0059C93.5404 30.3021 93.2018 30.7041 92.9648 31.2119C92.7279 31.7197 92.6094 32.3037 92.6094 32.9639V34.6777C92.6094 35.4479 92.7448 36.1081 93.0156 36.6582C93.2865 37.1999 93.6631 37.6188 94.1455 37.915C94.6364 38.2028 95.1992 38.3467 95.834 38.3467C96.2741 38.3467 96.6719 38.2832 97.0273 38.1562C97.3828 38.0293 97.6875 37.8431 97.9414 37.5977C98.2038 37.3522 98.3984 37.056 98.5254 36.709L102.156 36.9502C101.979 37.8219 101.606 38.5837 101.039 39.2354C100.48 39.8786 99.7568 40.3822 98.8682 40.7461C97.9795 41.1016 96.9512 41.2793 95.7832 41.2793ZM110.319 46.6113C108.407 46.6113 106.909 46.2305 105.825 45.4688C104.742 44.7155 104.082 43.776 103.845 42.6504L107.476 42.168C107.586 42.4557 107.759 42.7223 107.996 42.9678C108.233 43.2132 108.55 43.4079 108.948 43.5518C109.346 43.7041 109.833 43.7803 110.408 43.7803C111.263 43.7803 111.97 43.5729 112.528 43.1582C113.087 42.752 113.366 42.0622 113.366 41.0889V38.4863H113.201C113.032 38.8757 112.774 39.248 112.427 39.6035C112.08 39.959 111.635 40.2467 111.094 40.4668C110.552 40.6868 109.905 40.7969 109.151 40.7969C108.085 40.7969 107.116 40.5514 106.244 40.0605C105.381 39.5612 104.687 38.7995 104.162 37.7754C103.646 36.7513 103.388 35.4564 103.388 33.8906C103.388 32.2741 103.65 30.9284 104.175 29.8535C104.708 28.7786 105.41 27.9746 106.282 27.4414C107.154 26.8997 108.11 26.6289 109.151 26.6289C109.947 26.6289 110.611 26.7643 111.145 27.0352C111.686 27.2975 112.126 27.6276 112.465 28.0254C112.803 28.4232 113.057 28.8167 113.227 29.2061H113.379V26.8066H117.251V41.1523C117.251 42.3542 116.955 43.3613 116.362 44.1738C115.77 44.9863 114.953 45.5957 113.912 46.002C112.871 46.4082 111.674 46.6113 110.319 46.6113ZM110.396 37.8389C111.343 37.8389 112.076 37.4876 112.592 36.7852C113.117 36.0827 113.379 35.1094 113.379 33.8652C113.379 33.0358 113.26 32.3164 113.023 31.707C112.795 31.0892 112.461 30.611 112.021 30.2725C111.58 29.9255 111.039 29.752 110.396 29.752C109.752 29.752 109.206 29.9297 108.758 30.2852C108.318 30.6322 107.983 31.1146 107.755 31.7324C107.526 32.3503 107.412 33.0612 107.412 33.8652C107.412 34.6777 107.526 35.3844 107.755 35.9854C107.983 36.5778 108.318 37.0348 108.758 37.3564C109.206 37.6781 109.752 37.8389 110.396 37.8389ZM123.599 41.2666C122.701 41.2666 121.893 41.11 121.174 40.7969C120.463 40.4753 119.904 40.0013 119.498 39.375C119.092 38.7487 118.889 37.9701 118.889 37.0391C118.889 36.2435 119.033 35.5833 119.32 35.0586C119.608 34.5254 120.002 34.0938 120.501 33.7637C121 33.4336 121.567 33.1839 122.202 33.0146C122.837 32.8454 123.51 32.7269 124.221 32.6592C125.042 32.583 125.702 32.5068 126.201 32.4307C126.701 32.3545 127.064 32.2402 127.293 32.0879C127.53 31.9271 127.648 31.6986 127.648 31.4023V31.3389C127.648 30.7549 127.462 30.3021 127.09 29.9805C126.726 29.6589 126.21 29.498 125.541 29.498C124.839 29.498 124.276 29.6546 123.853 29.9678C123.438 30.2725 123.163 30.6618 123.027 31.1357L119.384 30.8438C119.57 29.9805 119.934 29.2357 120.476 28.6094C121.017 27.9746 121.715 27.488 122.57 27.1494C123.434 26.8024 124.432 26.6289 125.566 26.6289C126.354 26.6289 127.107 26.722 127.826 26.9082C128.546 27.0944 129.185 27.3822 129.743 27.7715C130.31 28.1523 130.759 28.6475 131.089 29.2568C131.419 29.8662 131.584 30.5898 131.584 31.4277V41H127.839V39.0195H127.737C127.509 39.4681 127.204 39.8617 126.823 40.2002C126.442 40.5303 125.985 40.7926 125.452 40.9873C124.919 41.1735 124.301 41.2666 123.599 41.2666ZM124.729 38.5498C125.304 38.5498 125.812 38.4355 126.252 38.207C126.701 37.9701 127.048 37.6569 127.293 37.2676C127.547 36.8698 127.674 36.4255 127.674 35.9346V34.4238C127.555 34.5 127.386 34.5719 127.166 34.6396C126.954 34.7074 126.717 34.7666 126.455 34.8174C126.193 34.8682 125.93 34.9147 125.668 34.957C125.406 34.9909 125.169 35.0247 124.957 35.0586C124.492 35.1263 124.085 35.2363 123.738 35.3887C123.391 35.5326 123.12 35.7314 122.926 35.9854C122.74 36.2308 122.646 36.5397 122.646 36.9121C122.646 37.4453 122.841 37.8516 123.23 38.1309C123.62 38.4102 124.119 38.5498 124.729 38.5498ZM141.41 26.8066V29.7773H132.866V26.8066H141.41ZM134.809 23.4297H138.731V36.6328C138.731 37.1068 138.837 37.458 139.049 37.6865C139.26 37.9066 139.599 38.0166 140.064 38.0166C140.217 38.0166 140.386 38.0039 140.572 37.9785C140.758 37.9531 140.919 37.9235 141.055 37.8896L141.677 40.835C141.245 40.9619 140.826 41.055 140.42 41.1143C140.022 41.1735 139.629 41.2031 139.239 41.2031C137.826 41.2031 136.734 40.8519 135.964 40.1494C135.194 39.4385 134.809 38.4398 134.809 37.1533V23.4297ZM149.434 41.2793C147.978 41.2793 146.721 40.9831 145.663 40.3906C144.605 39.7982 143.793 38.9561 143.226 37.8643C142.667 36.764 142.388 35.4648 142.388 33.9668C142.388 32.5111 142.667 31.2331 143.226 30.1328C143.793 29.0326 144.588 28.1735 145.612 27.5557C146.645 26.9378 147.855 26.6289 149.243 26.6289C150.183 26.6289 151.059 26.7812 151.871 27.0859C152.684 27.3822 153.395 27.8307 154.004 28.4316C154.613 29.0241 155.087 29.7731 155.426 30.6787C155.764 31.5758 155.934 32.6296 155.934 33.8398V34.9062H143.949V32.4814H154.029L152.201 33.1162C152.201 32.3968 152.091 31.7705 151.871 31.2373C151.651 30.7041 151.321 30.2936 150.881 30.0059C150.449 29.7096 149.912 29.5615 149.269 29.5615C148.625 29.5615 148.079 29.7096 147.631 30.0059C147.191 30.3021 146.852 30.7041 146.615 31.2119C146.378 31.7197 146.26 32.3037 146.26 32.9639V34.6777C146.26 35.4479 146.395 36.1081 146.666 36.6582C146.937 37.1999 147.313 37.6188 147.796 37.915C148.287 38.2028 148.85 38.3467 149.484 38.3467C149.924 38.3467 150.322 38.2832 150.678 38.1562C151.033 38.0293 151.338 37.8431 151.592 37.5977C151.854 37.3522 152.049 37.056 152.176 36.709L155.807 36.9502C155.629 37.8219 155.257 38.5837 154.689 39.2354C154.131 39.8786 153.407 40.3822 152.519 40.7461C151.63 41.1016 150.602 41.2793 149.434 41.2793Z" fill="white"/>
<path d="M16.0001 22.9452C16.0001 20.3481 13.895 18.2424 11.2979 18.2421C8.70067 18.2421 6.59475 20.348 6.59475 22.9452V25.5936H16.0001V22.9452ZM19.0001 24.5535L18.9884 25.5818L18.9601 25.5935H3.63477L3.60645 24.5818L3.59473 25.5535V22.9452C3.59473 18.6912 7.0438 15.2422 11.2979 15.2422L11.6934 15.252C15.7636 15.458 19.0001 18.824 19.0001 22.9452V24.5535Z" fill="#C8FF00"/>
<path d="M19.5947 23.459C21.2515 23.4591 22.5947 24.8022 22.5947 26.459V41C22.5945 42.6566 21.2514 43.9999 19.5947 44H3C1.3433 44 0.000256623 42.6566 0 41V26.459C9.73382e-07 24.8021 1.34315 23.459 3 23.459H19.5947ZM11.1631 26.54C8.96836 26.5402 7.18945 28.3191 7.18945 30.5127C7.18957 32.0328 8.04401 33.3536 9.2998 34.0215L9.42871 34.0908L7.33496 40.4912H14.9922L12.8984 34.0908L13.0273 34.0215C14.2831 33.3536 15.1376 32.0328 15.1377 30.5127C15.1377 28.3189 13.358 26.54 11.1631 26.54Z" fill="#C8FF00"/>
<path d="M4.48901 6.76126C-1.84804 11.5541 0.29139 16.9174 2.15324 19C7.58222 10 17.7399 13 20.5615 19C23.8925 13.9333 21.5842 9.41441 19.6208 7.78829C20.027 10.1847 15.0508 14.2928 15.7617 8.64414C16.3304 4.12523 13.1551 0.998499 11.4963 0C12.715 4.79279 7.02789 7.78829 5.70767 10.4414C4.73274 9.82523 4.48901 7.73123 4.48901 6.76126Z" fill="#C8FF00"/>
</svg>
