<svg width="157" height="45" viewBox="0 0 157 45" fill="none" xmlns="http://www.w3.org/2000/svg">
<path d="M32.8145 39V20.084H36.8008V27.8916H44.9258V20.084H48.9121V39H44.9258V31.1797H36.8008V39H32.8145ZM57.6719 39.2793C56.2415 39.2793 55.0016 38.9746 53.9521 38.3652C52.9111 37.7474 52.1071 36.8926 51.54 35.8008C50.9814 34.7005 50.7021 33.4225 50.7021 31.9668C50.7021 30.4941 50.9814 29.2119 51.54 28.1201C52.1071 27.0199 52.9111 26.165 53.9521 25.5557C55.0016 24.9378 56.2415 24.6289 57.6719 24.6289C59.1107 24.6289 60.3506 24.9378 61.3916 25.5557C62.4411 26.165 63.2451 27.0199 63.8037 28.1201C64.3708 29.2119 64.6543 30.4941 64.6543 31.9668C64.6543 33.4225 64.3708 34.7005 63.8037 35.8008C63.2451 36.8926 62.4411 37.7474 61.3916 38.3652C60.3506 38.9746 59.1107 39.2793 57.6719 39.2793ZM57.6973 36.207C58.349 36.207 58.8949 36.0251 59.335 35.6611C59.7751 35.2887 60.1051 34.7809 60.3252 34.1377C60.5537 33.4945 60.668 32.7624 60.668 31.9414C60.668 31.112 60.5537 30.3799 60.3252 29.7451C60.1051 29.1104 59.7751 28.611 59.335 28.2471C58.8949 27.8831 58.349 27.7012 57.6973 27.7012C57.0371 27.7012 56.4827 27.8831 56.0342 28.2471C55.5941 28.611 55.2598 29.1104 55.0312 29.7451C54.8112 30.3799 54.7012 31.112 54.7012 31.9414C54.7012 32.7624 54.8112 33.4945 55.0312 34.1377C55.2598 34.7809 55.5941 35.2887 56.0342 35.6611C56.4827 36.0251 57.0371 36.207 57.6973 36.207ZM66.3936 39V24.8066H70.1133V27.333H70.291C70.5872 26.4951 71.0824 25.835 71.7764 25.3525C72.4704 24.8701 73.2956 24.6289 74.252 24.6289C75.2253 24.6289 76.0505 24.8743 76.7275 25.3652C77.4131 25.8477 77.8701 26.5036 78.0986 27.333H78.251C78.5387 26.512 79.0635 25.8561 79.8252 25.3652C80.5869 24.8743 81.484 24.6289 82.5166 24.6289C83.8369 24.6289 84.9118 25.0479 85.7412 25.8857C86.5791 26.7236 86.998 27.9128 86.998 29.4531V39H83.0625V30.2402C83.0625 29.4447 82.8509 28.8522 82.4277 28.4629C82.013 28.0736 81.4925 27.8789 80.8662 27.8789C80.1553 27.8789 79.5967 28.1074 79.1904 28.5645C78.7926 29.013 78.5938 29.6055 78.5938 30.3418V39H74.7852V30.1387C74.7852 29.4531 74.5863 28.9072 74.1885 28.501C73.7907 28.0863 73.2702 27.8789 72.627 27.8789C72.1868 27.8789 71.7933 27.9889 71.4463 28.209C71.0993 28.429 70.8242 28.7337 70.6211 29.123C70.418 29.5039 70.3164 29.9609 70.3164 30.4941V39H66.3936ZM95.7832 39.2793C94.3275 39.2793 93.0706 38.9831 92.0127 38.3906C90.9548 37.7982 90.1423 36.9561 89.5752 35.8643C89.0166 34.764 88.7373 33.4648 88.7373 31.9668C88.7373 30.5111 89.0166 29.2331 89.5752 28.1328C90.1423 27.0326 90.9378 26.1735 91.9619 25.5557C92.9945 24.9378 94.2048 24.6289 95.5928 24.6289C96.5322 24.6289 97.4082 24.7812 98.2207 25.0859C99.0332 25.3822 99.7441 25.8307 100.354 26.4316C100.963 27.0241 101.437 27.7731 101.775 28.6787C102.114 29.5758 102.283 30.6296 102.283 31.8398V32.9062H90.2988V30.4814H100.379L98.5508 31.1162C98.5508 30.3968 98.4408 29.7705 98.2207 29.2373C98.0007 28.7041 97.6706 28.2936 97.2305 28.0059C96.7988 27.7096 96.2614 27.5615 95.6182 27.5615C94.9749 27.5615 94.429 27.7096 93.9805 28.0059C93.5404 28.3021 93.2018 28.7041 92.9648 29.2119C92.7279 29.7197 92.6094 30.3037 92.6094 30.9639V32.6777C92.6094 33.4479 92.7448 34.1081 93.0156 34.6582C93.2865 35.1999 93.6631 35.6188 94.1455 35.915C94.6364 36.2028 95.1992 36.3467 95.834 36.3467C96.2741 36.3467 96.6719 36.2832 97.0273 36.1562C97.3828 36.0293 97.6875 35.8431 97.9414 35.5977C98.2038 35.3522 98.3984 35.056 98.5254 34.709L102.156 34.9502C101.979 35.8219 101.606 36.5837 101.039 37.2354C100.48 37.8786 99.7568 38.3822 98.8682 38.7461C97.9795 39.1016 96.9512 39.2793 95.7832 39.2793ZM110.319 44.6113C108.407 44.6113 106.909 44.2305 105.825 43.4688C104.742 42.7155 104.082 41.776 103.845 40.6504L107.476 40.168C107.586 40.4557 107.759 40.7223 107.996 40.9678C108.233 41.2132 108.55 41.4079 108.948 41.5518C109.346 41.7041 109.833 41.7803 110.408 41.7803C111.263 41.7803 111.97 41.5729 112.528 41.1582C113.087 40.752 113.366 40.0622 113.366 39.0889V36.4863H113.201C113.032 36.8757 112.774 37.248 112.427 37.6035C112.08 37.959 111.635 38.2467 111.094 38.4668C110.552 38.6868 109.905 38.7969 109.151 38.7969C108.085 38.7969 107.116 38.5514 106.244 38.0605C105.381 37.5612 104.687 36.7995 104.162 35.7754C103.646 34.7513 103.388 33.4564 103.388 31.8906C103.388 30.2741 103.65 28.9284 104.175 27.8535C104.708 26.7786 105.41 25.9746 106.282 25.4414C107.154 24.8997 108.11 24.6289 109.151 24.6289C109.947 24.6289 110.611 24.7643 111.145 25.0352C111.686 25.2975 112.126 25.6276 112.465 26.0254C112.803 26.4232 113.057 26.8167 113.227 27.2061H113.379V24.8066H117.251V39.1523C117.251 40.3542 116.955 41.3613 116.362 42.1738C115.77 42.9863 114.953 43.5957 113.912 44.002C112.871 44.4082 111.674 44.6113 110.319 44.6113ZM110.396 35.8389C111.343 35.8389 112.076 35.4876 112.592 34.7852C113.117 34.0827 113.379 33.1094 113.379 31.8652C113.379 31.0358 113.26 30.3164 113.023 29.707C112.795 29.0892 112.461 28.611 112.021 28.2725C111.58 27.9255 111.039 27.752 110.396 27.752C109.752 27.752 109.206 27.9297 108.758 28.2852C108.318 28.6322 107.983 29.1146 107.755 29.7324C107.526 30.3503 107.412 31.0612 107.412 31.8652C107.412 32.6777 107.526 33.3844 107.755 33.9854C107.983 34.5778 108.318 35.0348 108.758 35.3564C109.206 35.6781 109.752 35.8389 110.396 35.8389ZM123.599 39.2666C122.701 39.2666 121.893 39.11 121.174 38.7969C120.463 38.4753 119.904 38.0013 119.498 37.375C119.092 36.7487 118.889 35.9701 118.889 35.0391C118.889 34.2435 119.033 33.5833 119.32 33.0586C119.608 32.5254 120.002 32.0938 120.501 31.7637C121 31.4336 121.567 31.1839 122.202 31.0146C122.837 30.8454 123.51 30.7269 124.221 30.6592C125.042 30.583 125.702 30.5068 126.201 30.4307C126.701 30.3545 127.064 30.2402 127.293 30.0879C127.53 29.9271 127.648 29.6986 127.648 29.4023V29.3389C127.648 28.7549 127.462 28.3021 127.09 27.9805C126.726 27.6589 126.21 27.498 125.541 27.498C124.839 27.498 124.276 27.6546 123.853 27.9678C123.438 28.2725 123.163 28.6618 123.027 29.1357L119.384 28.8438C119.57 27.9805 119.934 27.2357 120.476 26.6094C121.017 25.9746 121.715 25.488 122.57 25.1494C123.434 24.8024 124.432 24.6289 125.566 24.6289C126.354 24.6289 127.107 24.722 127.826 24.9082C128.546 25.0944 129.185 25.3822 129.743 25.7715C130.31 26.1523 130.759 26.6475 131.089 27.2568C131.419 27.8662 131.584 28.5898 131.584 29.4277V39H127.839V37.0195H127.737C127.509 37.4681 127.204 37.8617 126.823 38.2002C126.442 38.5303 125.985 38.7926 125.452 38.9873C124.919 39.1735 124.301 39.2666 123.599 39.2666ZM124.729 36.5498C125.304 36.5498 125.812 36.4355 126.252 36.207C126.701 35.9701 127.048 35.6569 127.293 35.2676C127.547 34.8698 127.674 34.4255 127.674 33.9346V32.4238C127.555 32.5 127.386 32.5719 127.166 32.6396C126.954 32.7074 126.717 32.7666 126.455 32.8174C126.193 32.8682 125.93 32.9147 125.668 32.957C125.406 32.9909 125.169 33.0247 124.957 33.0586C124.492 33.1263 124.085 33.2363 123.738 33.3887C123.391 33.5326 123.12 33.7314 122.926 33.9854C122.74 34.2308 122.646 34.5397 122.646 34.9121C122.646 35.4453 122.841 35.8516 123.23 36.1309C123.62 36.4102 124.119 36.5498 124.729 36.5498ZM141.41 24.8066V27.7773H132.866V24.8066H141.41ZM134.809 21.4297H138.731V34.6328C138.731 35.1068 138.837 35.458 139.049 35.6865C139.26 35.9066 139.599 36.0166 140.064 36.0166C140.217 36.0166 140.386 36.0039 140.572 35.9785C140.758 35.9531 140.919 35.9235 141.055 35.8896L141.677 38.835C141.245 38.9619 140.826 39.055 140.42 39.1143C140.022 39.1735 139.629 39.2031 139.239 39.2031C137.826 39.2031 136.734 38.8519 135.964 38.1494C135.194 37.4385 134.809 36.4398 134.809 35.1533V21.4297ZM149.434 39.2793C147.978 39.2793 146.721 38.9831 145.663 38.3906C144.605 37.7982 143.793 36.9561 143.226 35.8643C142.667 34.764 142.388 33.4648 142.388 31.9668C142.388 30.5111 142.667 29.2331 143.226 28.1328C143.793 27.0326 144.588 26.1735 145.612 25.5557C146.645 24.9378 147.855 24.6289 149.243 24.6289C150.183 24.6289 151.059 24.7812 151.871 25.0859C152.684 25.3822 153.395 25.8307 154.004 26.4316C154.613 27.0241 155.087 27.7731 155.426 28.6787C155.764 29.5758 155.934 30.6296 155.934 31.8398V32.9062H143.949V30.4814H154.029L152.201 31.1162C152.201 30.3968 152.091 29.7705 151.871 29.2373C151.651 28.7041 151.321 28.2936 150.881 28.0059C150.449 27.7096 149.912 27.5615 149.269 27.5615C148.625 27.5615 148.079 27.7096 147.631 28.0059C147.191 28.3021 146.852 28.7041 146.615 29.2119C146.378 29.7197 146.26 30.3037 146.26 30.9639V32.6777C146.26 33.4479 146.395 34.1081 146.666 34.6582C146.937 35.1999 147.313 35.6188 147.796 35.915C148.287 36.2028 148.85 36.3467 149.484 36.3467C149.924 36.3467 150.322 36.2832 150.678 36.1562C151.033 36.0293 151.338 35.8431 151.592 35.5977C151.854 35.3522 152.049 35.056 152.176 34.709L155.807 34.9502C155.629 35.8219 155.257 36.5837 154.689 37.2354C154.131 37.8786 153.407 38.3822 152.519 38.7461C151.63 39.1016 150.602 39.2793 149.434 39.2793Z" fill="white"/>
<path d="M19.5947 21.459C21.2515 21.4591 22.5947 22.8022 22.5947 24.459V39C22.5945 40.6566 21.2514 41.9999 19.5947 42H3C1.3433 42 0.000256623 40.6566 0 39V24.459C9.73382e-07 22.8021 1.34315 21.459 3 21.459H19.5947ZM11.1631 24.54C8.96836 24.5402 7.18945 26.3191 7.18945 28.5127C7.18957 30.0328 8.04401 31.3536 9.2998 32.0215L9.42871 32.0908L7.33496 38.4912H14.9922L12.8984 32.0908L13.0273 32.0215C14.2831 31.3536 15.1376 30.0328 15.1377 28.5127C15.1377 26.3189 13.358 24.54 11.1631 24.54Z" fill="#C8FF00"/>
<path d="M4.48901 6.76126C-1.84804 11.5541 0.29139 16.9174 2.15324 19C7.58222 10 17.7399 13 20.5615 19C23.8925 13.9333 21.5842 9.41441 19.6208 7.78829C20.027 10.1847 15.0508 14.2928 15.7617 8.64414C16.3304 4.12523 13.1551 0.998499 11.4963 0C12.715 4.79279 7.02789 7.78829 5.70767 10.4414C4.73274 9.82523 4.48901 7.73123 4.48901 6.76126Z" fill="#C8FF00"/>
</svg>
